<svg width="55" height="55" viewBox="0 0 55 55" fill="none" xmlns="http://www.w3.org/2000/svg">
<rect width="55" height="55" fill="white"/>
<circle cx="28.5855" cy="27.8618" r="14.8355" fill="#2896D5"/>
<path fill-rule="evenodd" clip-rule="evenodd" d="M38.3553 38.3553C45.9492 38.3553 52.1053 32.1992 52.1053 24.6053C52.1053 17.0114 45.9492 10.8553 38.3553 10.8553C36.6238 10.8553 34.967 11.1753 33.4409 11.7595C32.0592 11.1772 30.5409 10.8553 28.9474 10.8553C22.5525 10.8553 17.3684 16.0393 17.3684 22.4342C17.3684 28.6157 22.2123 33.6659 28.3115 33.996C30.8207 36.6786 34.3922 38.3553 38.3553 38.3553Z" fill="white"/>
<path fill-rule="evenodd" clip-rule="evenodd" d="M24.0292 30.7C23.234 28.9295 23.6011 26.0868 25.1422 23.4175C26.7412 20.6479 29.1339 18.8796 31.1086 18.7968C31.4586 20.8939 30.9781 23.4409 29.6121 25.8069C28.1866 28.2759 26.1082 30.0084 24.0292 30.7Z" fill="#2896D4"/>
<path fill-rule="evenodd" clip-rule="evenodd" d="M26.3564 31.7491C27.1694 29.5739 30.0466 27.2091 33.8922 25.8094C37.8823 24.3571 41.7416 24.3709 43.7034 25.6495C42.1744 27.8199 39.4516 29.8347 36.0429 31.0754C32.4858 32.3701 28.9589 32.5388 26.3564 31.7491Z" fill="#2896D4"/>
</svg>
